# xmcd
#
# Track frame offsets:
#	150
#	21639
#	38915
#	53867
#	64292
#	78152
#	92332
#	107079
#	119341
#	130894
#	140157
#	157296
#
# Disc length: 2342 seconds
#
# Revision: 0
# Processed by: cddbd v1.5.1PL0 Copyright (c) Steve Scherf et al.
# Submitted via: dBpowerAMP V4.0
#
DISCID=ac09240c
DTITLE=comp - Irish Partytime
DYEAR=2004
DGENRE=Country
TTITLE0=Hennessey's
TTITLE1=Lord Of The Dance
TTITLE2=McMahon's Reels
TTITLE3=The Rare Oul Mountain Dew
TTITLE4=King Of The Fairies
TTITLE5=Swing Round To The Jigs
TTITLE6=Shaskeen/Drunken Piper/Rolling On The Grass
TTITLE7=The Boys Of Blue Hills/The Stack Of Barley
TTITLE8=Merrily Kissed The Quaker
TTITLE9=Dicey Reily
TTITLE10=Britches Full Of Stitches/The Hollow Rock Waltz
TTITLE11=Riverdance
EXTD=
EXTT0=
EXTT1=
EXTT2=
EXTT3=
EXTT4=
EXTT5=
EXTT6=
EXTT7=
EXTT8=
EXTT9=
EXTT10=
EXTT11=
PLAYORDER=
